PathFileType	4	(X/Y/Z)	Kaydara	
DataRate	CameraRate	NumFrames	NumMarkers	Units	OrigDataRate	OrigDataStartFrame	OrigNumFrames	
240.00	240.00	4	72	mm	240.00	45	355	
Frame#	Time	Hips			RightUpLeg			RightLeg			RightFoot			RightFoot_End			LeftUpLeg			LeftLeg			LeftFoot			LeftFoot_End			Spine			Spine1			Spine2			Spine3			Neck			Head			Head_End			RightShoulder			RightArm			RightForeArm			RightHand			RightHandThumb1			RightHandThumb2			RightHandThumb3			RightHandThumb3_End			RightInHandIndex			RightHandIndex1			RightHandIndex2			RightHandIndex3			RightHandIndex3_End			RightInHandMiddle			RightHandMiddle1			RightHandMiddle2			RightHandMiddle3			RightHandMiddle3_End			RightInHandRing			RightHandRing1			RightHandRing2			RightHandRing3			RightHandRing3_End			RightInHandPinky			RightHandPinky1			RightHandPinky2			RightHandPinky3			RightHandPinky3_End			LeftShoulder			LeftArm			LeftForeArm			LeftHand			LeftHandThumb1			LeftHandThumb2			LeftHandThumb3			LeftHandThumb3_End			LeftInHandIndex			LeftHandIndex1			LeftHandIndex2			LeftHandIndex3			LeftHandIndex3_End			LeftInHandMiddle			LeftHandMiddle1			LeftHandMiddle2			LeftHandMiddle3			LeftHandMiddle3_End			LeftInHandRing			LeftHandRing1			LeftHandRing2			LeftHandRing3			LeftHandRing3_End			LeftInHandPinky			LeftHandPinky1			LeftHandPinky2			LeftHandPinky3			LeftHandPinky3_End			
		X1	Y1	Z1	X2	Y2	Z2	X3	Y3	Z3	X4	Y4	Z4	X5	Y5	Z5	X6	Y6	Z6	X7	Y7	Z7	X8	Y8	Z8	X9	Y9	Z9	X10	Y10	Z10	X11	Y11	Z11	X12	Y12	Z12	X13	Y13	Z13	X14	Y14	Z14	X15	Y15	Z15	X16	Y16	Z16	X17	Y17	Z17	X18	Y18	Z18	X19	Y19	Z19	X20	Y20	Z20	X21	Y21	Z21	X22	Y22	Z22	X23	Y23	Z23	X24	Y24	Z24	X25	Y25	Z25	X26	Y26	Z26	X27	Y27	Z27	X28	Y28	Z28	X29	Y29	Z29	X30	Y30	Z30	X31	Y31	Z31	X32	Y32	Z32	X33	Y33	Z33	X34	Y34	Z34	X35	Y35	Z35	X36	Y36	Z36	X37	Y37	Z37	X38	Y38	Z38	X39	Y39	Z39	X40	Y40	Z40	X41	Y41	Z41	X42	Y42	Z42	X43	Y43	Z43	X44	Y44	Z44	X45	Y45	Z45	X46	Y46	Z46	X47	Y47	Z47	X48	Y48	Z48	X49	Y49	Z49	X50	Y50	Z50	X51	Y51	Z51	X52	Y52	Z52	X53	Y53	Z53	X54	Y54	Z54	X55	Y55	Z55	X56	Y56	Z56	X57	Y57	Z57	X58	Y58	Z58	X59	Y59	Z59	X60	Y60	Z60	X61	Y61	Z61	X62	Y62	Z62	X63	Y63	Z63	X64	Y64	Z64	X65	Y65	Z65	X66	Y66	Z66	X67	Y67	Z67	X68	Y68	Z68	X69	Y69	Z69	X70	Y70	Z70	X71	Y71	Z71	X72	Y72	Z72	

45	0.183	921.0129	906.651	56.2195	1004.5445059667213	893.9177652523288	3.885376807551049	922.8130277048677	493.88485871922444	-90.56832016710109	896.4740096231035	107.23405692066335	-159.6227040485119	821.4109914608119	32.338537930836374	-0.5671487161629061	846.8193048495752	891.0886585922251	120.2048498443917	780.5598651045266	487.7898727158071	212.81344375148515	742.4272412602303	56.29850348748249	297.60826490192983	607.8227965889628	-16.59509280210729	182.6003707408685	876.6872510104155	1032.859272029709	5.358918046654046	826.9664399154199	1098.08127606533	-46.239499270483854	770.882509860836	1160.3699623875405	-102.4977261996289	710.8462650126085	1210.0742329985683	-160.54464917335326	646.3102385721468	1263.4984284220252	-221.88628874890793	586.2834984640758	1311.9944844258066	-276.8974447684804	469.1338595704266	1407.4451211653727	-328.8897286901125	691.544377051382	1248.3162948814952	-223.36650865517055	752.5757900579337	1238.3551849433954	-336.9213964832218	765.553544775491	960.7780129561147	-327.8914164093704	824.3283587857186	718.4267365156933	-383.1539356334035	827.2062467064575	698.8788584690783	-394.2715834698377	816.7965868935529	685.710994422793	-404.69191605044625	810.2538462499247	675.1623270370475	-410.6683112632247	805.4038780466573	665.1890462760014	-414.5552870391282	831.6715747175359	690.6372435032046	-390.51670471107707	838.2879359802345	649.5778809939779	-397.82282479333367	833.9798008976329	629.0509417704817	-403.8967703989564	825.3204156486604	625.0150269559925	-408.69215848760155	814.1186679474386	627.5602330510951	-413.34879887944226	832.9393520064837	688.6993461596355	-386.8271610690009	840.0810306061965	647.6007725138442	-391.9573646043961	835.5146898471103	625.0893339069411	-398.0759629318389	825.1320782805435	620.1662015367966	-403.6170261238926	812.9067381340747	622.9249059995069	-408.5934241648466	833.762621603308	688.2791085431069	-384.0170884118859	841.1597964628987	650.7924724165583	-386.1258034698441	837.3051023271757	631.1223282787315	-390.9303556212772	827.3567968310248	626.3475305047964	-395.9945191482433	815.8934238304835	628.9290690292626	-400.54059346979534	833.7601530373267	689.7632690501788	-380.7003043783537	840.8689935905156	655.9506669428537	-380.5350552236779	837.9448638254188	640.2871624134705	-383.5488548528545	830.767174078331	636.8467865274105	-386.83948685386184	820.6577548908009	639.1580072983004	-390.6345277638818	643.2007745669907	1243.7632411781303	-178.1058897989988	575.1523830138728	1178.8530905186283	-82.22280818810007	694.0351400270596	992.7271500431573	-208.99784680333707	858.4894672303683	808.4716195068389	-326.80324568861425	843.9510366463284	798.7011266361292	-347.3557166200988	839.1545262952934	778.9395778909521	-382.13610878266724	836.2886069375368	763.192606609024	-406.5942347700416	834.3052331286648	748.3668862809114	-427.18672353583617	843.2237391551489	790.821566714356	-349.0933123921129	826.3907482953985	755.9095150801948	-388.3607376014317	820.5198754655981	730.9054113207972	-421.0172197672297	820.9970779800408	719.2973682727059	-441.00539191234685	824.1759312336305	712.3450265506449	-457.3375477596518	845.3775837981434	786.6040417104895	-348.62470711059837	830.1225363527096	750.2708228014812	-386.66998452473484	824.0623392416971	722.5422352347641	-422.1221566685653	824.8041568430543	708.3244471998535	-446.14954950700604	828.3631450720304	700.6137294973732	-463.9773072799849	847.2692400084753	784.5025339533547	-347.24683508198206	835.065452205539	750.0792209388163	-380.0159543064726	830.1618063264837	725.514326437174	-410.6701655027335	831.0783331262006	711.5895616096046	-433.7158237219419	834.519924763031	704.2397601341655	-450.416483478324	850.4065068641622	783.1921315033348	-344.87373958204387	840.9420149884281	750.7574318645992	-373.3288719160369	837.6594313890357	730.6183265909394	-397.3492022744702	838.6395080528703	720.2349379915671	-413.9041577622822	841.8675118670715	713.5937960631696	-428.55166974326426
46	0.188	921.0129	906.651	56.2195	1004.4506649312231	893.8760395535996	3.8549222280772453	922.7223727948709	493.8246857294552	-90.4989824531572	896.6179724641067	107.22286198358483	-159.63763406110021	821.5542103941522	32.31666270424546	-0.5877894639188617	846.9050165299234	891.1270793403081	120.23347723092651	780.6899264726385	487.8252491258268	212.85556439650549	742.5111340943002	56.33509016042725	297.59772427416357	607.929702125864	-16.58552204840979	182.5843701004305	876.7258766538059	1032.8755040464393	5.368436791557698	826.7818284947828	1097.8688489840292	-46.29137026400872	770.5701273884013	1160.0111924380128	-102.57020508682878	710.5527400230351	1209.7433911812636	-160.6129814372004	646.0350559324971	1263.1949468330238	-221.95025311165864	586.0237227694497	1311.7141202713435	-276.95741071225325	468.8521569354838	1407.132277058745	-328.9563479496966	691.2549398048171	1247.998951649492	-223.42860712521548	752.3444216034012	1238.1401575447153	-336.9925738394246	765.0959056606938	960.6934502062196	-328.0280984212067	823.6701971608372	718.7376616117086	-383.86034910238453	826.5759526473903	699.3179683479133	-395.0286625314192	816.1635225294764	686.212931812655	-405.5192209535914	809.6135085683887	675.6984423629892	-411.55075275271565	804.7529067867931	665.7454650661846	-415.4890235607248	831.026412097733	691.059368291927	-391.3019548340596	837.6353500961758	650.1101661764487	-398.7466580827829	833.312806774909	629.62998747063	-404.91084166231525	824.6443136572478	625.6059650375172	-409.7430881019701	813.4349103760751	628.1494334852404	-414.41725116688673	832.2794819080334	689.0901621356203	-387.62425417148125	839.4059798783612	648.0821123761955	-392.89603678031943	834.8219740534907	625.6171492071317	-399.11420608599855	824.4274450330618	620.7062084447723	-404.70027227888716	812.1932979593454	623.4619563210008	-409.69610634945735	833.0926204731343	688.6452509904643	-384.8191424553051	840.4675415352172	651.2190982608151	-387.05942777140604	836.5955084850173	631.5846935468747	-391.9516681806637	826.6346771863975	626.8191173476474	-397.059727091439	815.1625289915831	629.3966796062853	-401.6243062292217	833.0782287833862	690.0957159066024	-381.50302464045757	840.1594837273183	656.318723354742	-381.45934824612453	837.2185401921251	640.6761339701328	-384.54421195493126	830.0302855993201	637.2387526511767	-387.86726049349676	819.9122705430578	639.5443032710131	-391.6789294081541	642.9282005689695	1243.455346993747	-178.17488744898102	574.8785537381502	1178.5718291840901	-82.31308988056568	693.6657079589221	992.5306256548508	-209.19342897543325	858.0806599908958	808.5442659797607	-327.0727515887936	843.5416613779307	798.8470885069135	-347.6602846460746	838.7341436356611	779.1162337809172	-382.4386994854775	835.854831232109	763.3873584652697	-406.8888192779115	833.8553789294971	748.5739278514731	-427.4689638575092	842.7927654449386	790.9670416905661	-349.37940870976036	825.9089808855324	756.134516038357	-388.6387080161807	820.0080867565956	731.1615521548538	-421.27853377803336	820.4781714318857	719.5560823828718	-441.2563282207297	823.6589142125283	712.5945353757866	-457.5799053783843	844.9330422155439	786.7366857264359	-348.89254297479874	829.6211162213376	750.4741032732528	-386.9200190010383	823.5265445488199	722.7775162397539	-422.35162416627924	824.2589999048863	708.5618694728947	-446.36535173335113	827.8196707472327	700.840617567172	-464.1831558958783	846.816318357373	784.6243300691388	-347.50205189957154	834.5539698494968	750.2555965997389	-380.24444842637536	829.6188025715227	725.7164588221544	-410.8782939315829	830.525459737248	711.7926300882843	-433.90950545550373	833.9682582610702	704.4323865509645	-450.60018857318454	849.9461857242683	783.2972148813354	-345.1141166855404	840.4230732344156	750.9031265423538	-373.53580648683663	837.1130671956012	730.7810584522488	-397.53616994966535	838.0848960737734	720.396617300919	-414.07880462483826	841.3133365549758	713.7452338198315	-428.7164658907722
47	0.192	921.0129	906.651	56.2195	1004.3580155964372	893.8302954677409	3.8282404900729676	922.6302696140875	493.7610606356595	-90.425150368913	896.7600472444401	107.20863807611057	-159.6471682018887	821.6906912245787	32.29204115927909	-0.605162148875255	846.9884083898843	891.1698453749378	120.25991024072232	780.8138934649927	487.8675907437556	212.90363729964943	742.5816474771284	56.377952793394485	297.58250766107244	608.0290306137907	-16.568271461215396	182.55627658485128	876.7695303576495	1032.89036307602	5.370801794039512	826.8900515488106	1097.9533947664324	-46.26948056776753	770.2638292072285	1159.614334879526	-102.63456691877207	710.2641741799353	1209.374563705571	-160.6715196954074	645.7631067400627	1262.8525465223902	-222.00294197139885	585.7653860616492	1311.393335139636	-277.0050633924888	468.5731912869685	1406.77728675305	-329.01786835615366	690.9682272588166	1247.6425327401748	-223.4799475284848	752.1132778748635	1237.8803540219062	-337.04828304689624	764.6354832145823	960.5651035935257	-328.16129617076126	822.8229363127481	719.0273742120311	-384.5888172766686	825.7560993731952	699.7370499350293	-395.80803419743324	815.3396369921734	686.696688268609	-406.36985944738996	808.7811187274597	676.2177060616175	-412.45711536285177	803.9085443403	666.2861606551521	-416.4470490112252	830.1903335720981	691.4617104953785	-392.1088659294231	836.7879386867185	650.6251408574849	-399.69158585183663	832.4485525705816	630.193572999883	-405.94631228438595	823.7701825532455	626.1824767237109	-410.81615334191264	812.5530282408143	628.724977763884	-415.5088175535743	831.4278687462792	689.4612321773134	-388.44266499731293	838.5349090078795	648.5461313475722	-393.85529473606636	833.9305042982731	626.1297041982867	-400.17332380205795	823.523091912281	621.2321718656575	-405.8052559047875	811.2799747699484	623.9857985294462	-410.8215820038729	832.2303685488945	688.9916185953898	-385.64228543202876	839.5787770046454	651.6280859047566	-388.01326163823245	835.686919966375	632.0312053110091	-392.9933996502619	825.7125769782094	627.276028363196	-398.1461575138653	814.2314884081013	629.8503922117203	-402.7302289379036	832.2036364755907	690.408280954566	-382.32664623315765	839.2531495888248	656.668804876276	-382.4035945489615	836.2932648852434	641.0485273672314	-385.5596199018954	829.0936777771668	637.6150007620408	-388.9156479213104	818.9668842780334	639.9155645474602	-392.74479790125366	642.6605563997862	1243.1093100099254	-178.23311568868277	574.6154778252937	1178.2541605927615	-82.39244466402064	693.4400567659592	992.3327533848408	-209.35837809676335	857.108637335444	808.4403089829577	-327.43542762037623	842.5672742755783	798.8173764438936	-348.0470295843257	837.7468203715582	779.1066278600674	-382.81288687757115	834.8526280565103	763.3878365692041	-407.2470332606174	832.8357511127003	748.5794731151494	-427.8076668232937	841.7960570071704	790.9356385583109	-349.74399528789905	824.8573839249322	756.1756743607591	-388.97245515073575	818.924010536714	731.2237964868735	-421.5823185364535	819.3860632629714	719.612850834838	-441.5451197201489	822.5683689923017	712.6342456883528	-457.8587178460398	843.922554716275	786.6907407789624	-349.2381075261814	828.5496337687661	750.4910665079059	-387.2252182453654	822.4179785676697	722.8152934012197	-422.62170619564466	823.1399625524203	708.5919991241759	-446.61617853879284	826.701970595022	700.851567526271	-464.4224946188389	845.79737942054	784.5665410274033	-347.83499019138645	833.4727368235767	750.2447516177314	-380.530353239921	828.5036654696202	725.7214122180508	-411.1311916938126	829.3993935957426	711.7889550641322	-434.14253318789906	832.8430363886356	704.4100826450687	-450.8218230084525	848.9199516564278	783.2214163347439	-345.4331444807211	839.3348148183338	750.8602501484088	-373.8032190431737	835.9954885454865	730.7469787698252	-397.7735929341614	836.9582833491186	720.3543850009295	-414.30001607262176	840.1868857304084	713.6854184696341	-428.9265921047867
48	0.196	921.0129	906.651	56.2195	1004.2577377554646	893.7869052609326	3.7948721055494388	922.5357080197606	493.69833561243894	-90.35593906038214	896.9086622059967	107.19786041868637	-159.6701963441326	821.8415382887897	32.26986034953996	-0.6328559095954934	847.0809211300285	891.2100274286564	120.29134851341534	780.9420018842906	487.9087950960577	212.95886518410487	742.6657654844207	56.41987354538876	297.58314201928636	608.1339133757938	-16.552117423557895	182.55329967727397	876.8066646478726	1032.9062511718998	5.380861309376195	827.0973418488059	1098.152190643559	-46.204533910870765	770.613675002385	1159.9953914993673	-102.5487350215946	710.6324948616674	1209.7829443002852	-160.58134068712488	646.1485309124199	1263.286808449324	-221.9079318865273	586.1645861897313	1311.848958394009	-276.9053693369068	468.94978659603566	1407.2046600634615	-328.9131579172898	691.3382885310256	1248.0621365284128	-223.38281490852268	752.5344506147857	1238.3968758453384	-336.95494511285517	765.2718117109271	961.0624494919045	-328.4100696908449	823.3801253564558	719.9202135430023	-385.3632540485425	826.34410866713	700.757832814924	-396.6315065270191	815.927538950947	687.7783253712493	-407.26143639413175	809.3634555545368	677.3323105219637	-413.40229558887745	804.4815624680298	667.4202121217875	-417.4422145027522	830.7632792024056	692.4663724811085	-392.96014794168195	837.356978880971	651.7405421467628	-400.67818582360127	833.0054475601737	631.3548522701751	-407.02088987910196	824.3191349679989	627.3542140889217	-411.9264939253486	813.0951185597614	629.8931884170835	-416.63598589731055	831.9855797089415	690.4349911232878	-389.30574312889837	839.0805853313759	649.6111972855286	-394.8567418756233	834.4609196071647	627.2403433188856	-401.2718865179852	824.0429587999141	622.3532933350347	-406.94749360020484	811.7918780563589	625.1020169474755	-411.98249109857375	832.7774842976987	689.9409983775334	-386.51037750967123	840.1060725944491	652.6389323432163	-389.0100920406613	836.1988850882462	633.0770592336864	-394.07579862776504	826.213286364865	628.3294776500401	-399.2711694444444	814.7241878715897	630.8980576430656	-403.8730256056421	832.7381917087527	691.3241645022092	-383.1955672445757	839.761964210089	657.6213912110337	-383.39159585556047	836.7867147005879	642.0215059532106	-386.6169991941627	829.5774217712967	638.5898245786448	-390.00452862664054	819.4426802041451	640.8831286905232	-393.8496758924301	643.0505959290952	1243.5409819358708	-178.1437956393141	575.013355523894	1178.7194054091517	-82.32447954280484	693.6131446345233	992.8494081842912	-209.39385706294345	856.999689488599	809.1290965023799	-327.64485803071375	842.4584505665905	799.5809079128527	-348.28471550489684	837.6288742021658	779.8931479408352	-383.0394297400447	834.7225375220676	764.1865753899151	-407.4583867033647	832.6905856861313	749.385149084747	-427.9999859754339	841.6653357594744	791.6977324845795	-349.9594832728246	824.6768134996336	757.0127302310143	-389.16146109070934	818.7147954430999	732.0846727948964	-421.74284044473984	819.1709405526539	720.4702548494955	-441.6905280732466	822.3563818997028	713.4764229281509	-457.99337029051384	843.7781084866036	787.4385572591402	-349.43381155497985	828.3491330917888	751.304293198133	-387.3843785853162	822.1845719842822	723.6523496670951	-422.7472577492045	822.8986450017634	709.4238215077185	-446.7222778843798	826.4637010499465	701.6662229424145	-464.5162401558112	845.6443852130761	785.302632551748	-348.01743927418073	833.2617710775907	751.0301019858111	-380.66869502824153	828.2624378989472	726.5252246785413	-411.23768338727575	829.1496804460326	712.5864828601004	-434.22891964080037	832.5957993256238	705.1909013493554	-450.8959525184724	848.7594235892487	783.9396399149382	-345.6006978057062	839.1160829601099	751.6135994908875	-373.92128782029215	835.7502923583809	731.5112755306076	-397.86239732708293	836.705820356873	721.1122360388684	-414.37234722780516	839.9359891080953	714.4274029054606	-428.98701415527387
